<svg xmlns="http://www.w3.org/2000/svg" width="130" height="33" viewBox="0 0 130 33">
  <g id="Group_3486" data-name="Group 3486" transform="translate(7069 2817)">
    <g id="Layer_2" data-name="Layer 2" transform="translate(-7068.01 -2809.971)">
      <g id="Layer_1" data-name="Layer 1" transform="translate(0.01 -0.029)">
        <g id="CDUYJQ" transform="translate(0 0)">
          <path id="Path_3" data-name="Path 3" d="M314.622,19.461v.252a.556.556,0,0,1-.026.2H307.48v-.445c.248-.028.5-.05.744-.087a1.619,1.619,0,0,0,1.555-1.759V4.127a1.689,1.689,0,0,0-1.752-1.852l-.547-.04V1.77h7.167v.445c-.322.044-.644.068-.966.137a1.523,1.523,0,0,0-1.339,1.616v6.344l.119.075c.377-.392.747-.784,1.127-1.17,1.478-1.513,2.969-3.017,4.43-4.545a4.729,4.729,0,0,0,.724-1.071.818.818,0,0,0-.644-1.27c-.293-.059-.6-.065-.927-.1V1.776h6.594v.445c-.212.025-.435.047-.644.084a4.288,4.288,0,0,0-2.405,1.311c-1.752,1.824-3.477,3.667-5.213,5.5-.138.143-.27.29-.428.458.551.623,1.095,1.245,1.626,1.868,1.768,2.067,3.516,4.15,5.306,6.2a8.325,8.325,0,0,0,1.565,1.376,6.813,6.813,0,0,0,1.436.545V19.9h-7.728v-.426c.126-.016.261-.025.393-.044a6.084,6.084,0,0,0,.86-.128c.528-.153.692-.492.428-.959a9.893,9.893,0,0,0-1.011-1.581c-1.61-1.874-3.22-3.711-4.83-5.579a1.3,1.3,0,0,0-.779,1.227c.055,1.715.055,3.424,0,5.149a1.691,1.691,0,0,0,1.71,1.846Z" transform="translate(-212.653 -1.191)"/>
          <path id="Path_4" data-name="Path 4" d="M256.344,13.6H255.9c-.035-.255-.055-.5-.109-.735a2.229,2.229,0,0,0-2.106-1.815c-.966-.093-1.932-.062-2.924-.078h-1.7v6.653a2.239,2.239,0,0,0,.023.442c.113.623.322.781.966.778,1.391,0,2.785,0,4.186-.04a4.083,4.083,0,0,0,3.677-2.329c.116-.215.225-.436.322-.66.235-.517.235-.517.879-.467-.374,1.522-.744,3.035-1.121,4.567H244.289v-.442c.225-.028.464-.05.7-.087a1.58,1.58,0,0,0,1.51-1.709c0-4.52-.019-9.028,0-13.567a1.706,1.706,0,0,0-1.79-1.84l-.435-.037V1.77h13.478V5.611c-.344.115-.509.037-.605-.339a2.93,2.93,0,0,0-1.784-2.226,2.856,2.856,0,0,0-.966-.177c-1.407-.019-2.814,0-4.221,0a1.077,1.077,0,0,0-.8.282,1,1,0,0,0-.324.761V9.721a.705.705,0,0,0,.019.121.7.7,0,0,0,.174.04c1.343,0,2.689,0,4.031-.04a3.667,3.667,0,0,0,1.175-.258,2.074,2.074,0,0,0,1.355-1.8c.023-.168.048-.336.074-.517h.444Z" transform="translate(-168.412 -1.191)"/>
          <path id="Path_5" data-name="Path 5" d="M386.337.021q.28,2.878.557,5.746c-.48.171-.563.134-.7-.312a6.686,6.686,0,0,0-2.17-3.507,3.653,3.653,0,0,0-2.975-.807,2.579,2.579,0,0,0-1.684,4,6.492,6.492,0,0,0,1.855,1.768c1.265.857,2.56,1.677,3.8,2.563a5.393,5.393,0,0,1,2.289,3.118,5.074,5.074,0,0,1-5.454,6.347,13.3,13.3,0,0,1-2.286-.474c-.322-.075-.621-.215-.937-.312-.811-.224-1.108-.05-1.314.77h-.518c-.251-1.927-.5-3.853-.757-5.792.357-.112.554-.056.686.312a7.286,7.286,0,0,0,2.347,3.5,4.116,4.116,0,0,0,3.542.9,3.088,3.088,0,0,0,2.228-3.741,4.212,4.212,0,0,0-1.761-2.584c-.824-.624-1.7-1.153-2.576-1.705a10.2,10.2,0,0,1-2.853-2.394c-1.4-1.871-1.307-5.474,1.446-6.909A4.826,4.826,0,0,1,382.94.251c.541.168,1.063.393,1.61.567.592.193.924.062,1.156-.5C385.822.017,385.99-.073,386.337.021Z" transform="translate(-259.145 0.029)"/>
          <path id="Path_6" data-name="Path 6" d="M126.852,19.89v-.43c.277-.028.551-.044.824-.084,1.14-.165,1.79-.691,1.758-1.93-.042-1.737,0-3.48,0-5.22a1.268,1.268,0,0,0-.18-.647Q127,7.961,124.71,4.359c-.113-.177-.232-.352-.354-.523A3.375,3.375,0,0,0,121.98,2.2V1.76h7.084v.445c-.357.04-.724.056-1.079.121-.66.131-.847.442-.692,1.065a3.007,3.007,0,0,0,.345.809c1.224,1.992,2.463,3.991,3.687,5.989.029.05.071.1.129.177a3.051,3.051,0,0,0,.177-.249q1.69-2.872,3.374-5.75a4.747,4.747,0,0,0,.428-.934.786.786,0,0,0-.055-.729.841.841,0,0,0-.64-.389c-.322-.059-.644-.068-.992-.1V1.76h5.532v.467a4.565,4.565,0,0,0-2.9,2.254c-1.12,1.734-2.173,3.508-3.252,5.267-.293.473-.56.962-.873,1.423a1.561,1.561,0,0,0-.267.934v5.441a1.588,1.588,0,0,0,1.468,1.784c.344.075.7.093,1.079.14v.42Z" transform="translate(-84.13 -1.184)"/>
          <path id="Path_7" data-name="Path 7" d="M184.839,1.76h14.354c.051,1.556.1,3.063.155,4.582-.557.072-.538.068-.644-.4a12.435,12.435,0,0,0-.431-1.482A2.16,2.16,0,0,0,196.2,2.906c-.947-.025-1.893,0-2.882,0,0,.134-.019.277-.019.42V17.555c0,1.164.522,1.725,1.732,1.849l.5.053v.433h-7.042v-.423c.322-.05.644-.078.966-.153a1.5,1.5,0,0,0,1.265-1.42,3.934,3.934,0,0,0,.026-.476V3.335c0-.47,0-.492-.5-.476-.8.022-1.591.059-2.383.128A2.441,2.441,0,0,0,185.6,5c-.093.311-.158.644-.229.968-.1.461-.093.464-.644.367C184.743,4.823,184.791,3.31,184.839,1.76Z" transform="translate(-127.359 -1.184)"/>
          <path id="Path_8" data-name="Path 8" d="M14.573,14.024a4.489,4.489,0,0,0-3.22-3.425c-.274-.1-.56-.174-.847-.262.026-.04.029-.056.039-.059l.283-.1A4.422,4.422,0,0,0,12.812,9,4.187,4.187,0,0,0,11.254,2.43a9.824,9.824,0,0,0-3.741-.716C5.078,1.679,2.644,1.7.21,1.695a.783.783,0,0,0-.2.019v.467c.2.016.393.019.576.04,1.059.125,1.884.5,1.871,1.933-.039,4.449,0,8.9,0,13.347A1.646,1.646,0,0,1,.815,19.329c-.261.037-.522.059-.8.087v.448c.1,0,.164.019.229.019H8a9.684,9.684,0,0,0,3.767-.66A4.494,4.494,0,0,0,14.573,14.024ZM6.05,2.738a8.54,8.54,0,0,1,2.74.252,3.379,3.379,0,0,1,2.441,3.674,3.1,3.1,0,0,1-2.9,3.063c-1.066.156-2.164.121-3.307.174V3.771C5.01,3.034,5.287,2.741,6.05,2.738Zm5.609,13.138A3.152,3.152,0,0,1,8.9,18.7a12.409,12.409,0,0,1-2.679.115,1.1,1.1,0,0,1-1.2-1.245c-.019-2.179,0-4.337,0-6.507a1.19,1.19,0,0,1,.039-.153c.621,0,1.253-.022,1.88,0a7.13,7.13,0,0,1,2.83.623,3.193,3.193,0,0,1,1.967,2.88,7.123,7.123,0,0,1-.077,1.46Z" transform="translate(-0.01 -1.138)"/>
          <path id="Path_9" data-name="Path 9" d="M78.813,6A7.95,7.95,0,0,0,70.841.418,7.432,7.432,0,0,0,64.5,3.878a10.956,10.956,0,0,0-.683,10.784,7.9,7.9,0,0,0,8.169,4.7,7.578,7.578,0,0,0,5.957-3.741,10.851,10.851,0,0,0,1.51-5.88A11.464,11.464,0,0,0,78.813,6Zm-2.254,5.253A8.623,8.623,0,0,1,74.415,16.9a4.725,4.725,0,0,1-5.474,1.085,5.347,5.347,0,0,1-2.254-2.594,10.085,10.085,0,0,1-.47-1.216,14.333,14.333,0,0,1-.586-4.343,16.072,16.072,0,0,1,.357-3.582,10.2,10.2,0,0,1,.364-1.163,5.263,5.263,0,0,1,2.766-3.214,4.6,4.6,0,0,1,6.25,2.148A9.015,9.015,0,0,1,76.45,7.6a24.9,24.9,0,0,1,.122,3.651Z" transform="translate(-43.257 -0.267)"/>
        </g>
      </g>
    </g>
    <rect id="Rectangle_1542" data-name="Rectangle 1542" width="130" height="33" transform="translate(-7069 -2817)" fill="none"/>
  </g>
</svg>
